<svg width="4955" height="4955" viewBox="0 0 4955 4955" fill="none" xmlns="http://www.w3.org/2000/svg">
<rect width="4955" height="4955" rx="2477.5" fill="white"/>
<path d="M1273.56 3902.87C1241.64 3902.87 1225.68 3886.91 1225.68 3854.99V1397.81C1225.68 1365.89 1241.64 1349.93 1273.56 1349.93H2361.38C2392.03 1349.93 2417.56 1360.14 2437.99 1380.57L2821.03 1763.61C2842.73 1785.31 2853.58 1810.85 2853.58 1840.22V3854.99C2853.58 3886.91 2837.63 3902.87 2805.71 3902.87H2263.71C2231.79 3902.87 2215.83 3886.91 2215.83 3854.99V1859.37H1863.44V3854.99C1863.44 3886.91 1847.48 3902.87 1815.56 3902.87H1273.56ZM3092.68 3902.87C3060.76 3902.87 3044.8 3886.91 3044.8 3854.99V1397.81C3044.8 1365.89 3060.76 1349.93 3092.68 1349.93H3634.68C3666.6 1349.93 3682.56 1365.89 3682.56 1397.81V3854.99C3682.56 3886.91 3666.6 3902.87 3634.68 3902.87H3092.68Z" fill="black"/>
</svg>
